<svg xmlns="http://www.w3.org/2000/svg" xmlns:xlink="http://www.w3.org/1999/xlink" width="234.845" height="81.591" viewBox="0 0 234.845 81.591">
  <defs>
    <clipPath id="clip-path">
      <path id="Trazado_7" data-name="Trazado 7" d="M0,23.165H234.844v-81.59H0Z" transform="translate(0 58.425)" fill="#fff"/>
    </clipPath>
  </defs>
  <g id="Grupo_36" data-name="Grupo 36" transform="translate(0 58.425)">
    <g id="Grupo_1" data-name="Grupo 1" transform="translate(58.352 -30.063)">
      <path id="Trazado_1" data-name="Trazado 1" d="M.355,2.522H3.4V3.665H-.9V-6.36H.355Z" transform="translate(0.895 6.36)" fill="#fff"/>
    </g>
    <g id="Grupo_7" data-name="Grupo 7" transform="translate(0 -58.425)" clip-path="url(#clip-path)">
      <g id="Grupo_2" data-name="Grupo 2" transform="translate(63.525 31.978)">
        <path id="Trazado_2" data-name="Trazado 2" d="M1.793,1.82H.6V.849H.57A2.549,2.549,0,0,1-1.544,2.032,3.071,3.071,0,0,1-4.523-1.332,3.05,3.05,0,0,1-1.585-4.589,2.547,2.547,0,0,1,.57-3.366H.6V-4.4h1.2ZM.664-1.292A2.043,2.043,0,0,0-1.359-3.526,2.064,2.064,0,0,0-3.326-1.292,2.063,2.063,0,0,0-1.359.969,2.051,2.051,0,0,0,.664-1.292" transform="translate(4.523 4.589)" fill="#fff"/>
      </g>
      <g id="Grupo_3" data-name="Grupo 3" transform="translate(72.009 32.164)">
        <path id="Trazado_3" data-name="Trazado 3" d="M.34,0V3.444c0,1,.253,1.875,1.436,1.875s1.437-.878,1.437-1.875V0h1.2V3.576c0,1.7-.8,2.859-2.634,2.859S-.857,5.279-.857,3.576V0Z" transform="translate(0.857)" fill="#fff"/>
      </g>
      <g id="Grupo_4" data-name="Grupo 4" transform="translate(79.615 31.978)">
        <path id="Trazado_4" data-name="Trazado 4" d="M.34.34H.38a1.788,1.788,0,0,1,1.7-1.2,1.871,1.871,0,0,1,.985.306L2.52.539a1.039,1.039,0,0,0-.73-.253C.5.287.34,1.484.34,2.493V5.552h-1.2V-.671H.34Z" transform="translate(0.857 0.857)" fill="#fff"/>
      </g>
      <g id="Grupo_5" data-name="Grupo 5" transform="translate(84.907 28.481)">
        <path id="Trazado_5" data-name="Trazado 5" d="M.468.238a.817.817,0,0,1-.824.811A.818.818,0,0,1-1.181.238.832.832,0,0,1-.356-.6.831.831,0,0,1,.468.238M.242,9.307h-1.2V3.084h1.2Z" transform="translate(1.181 0.6)" fill="#fff"/>
      </g>
      <g id="Grupo_6" data-name="Grupo 6" transform="translate(88.432 31.978)">
        <path id="Trazado_6" data-name="Trazado 6" d="M.34.993A1.959,1.959,0,0,0,2.215,3.054,2.035,2.035,0,0,0,4.077,1.843l1.01.573A3.236,3.236,0,0,1,2.2,4.117,3.025,3.025,0,0,1-.857.846C-.857-1.068.167-2.5,2.175-2.5,4.156-2.5,5.086-1.042,5.086.807V.993Zm3.55-.9A1.678,1.678,0,0,0,2.175-1.466,1.779,1.779,0,0,0,.407.089Z" transform="translate(0.857 2.504)" fill="#fff"/>
      </g>
    </g>
    <g id="Grupo_8" data-name="Grupo 8" transform="translate(99.922 -30.489)">
      <path id="Trazado_8" data-name="Trazado 8" d="M.706,1.087H.679L-.491,7.709H-1.78L.267-2.742l3.444,7.9,3.444-7.9L9.2,7.709H7.913L6.743,1.087H6.716L3.711,7.922Z" transform="translate(1.78 2.742)" fill="#fff"/>
    </g>
    <g id="Grupo_9" data-name="Grupo 9" transform="translate(116.264 -30.063)">
      <path id="Trazado_9" data-name="Trazado 9" d="M1.03,2.846H-.219V-6.035H-2.6V-7.179H3.41v1.144H1.03Z" transform="translate(2.599 7.179)" fill="#fff"/>
    </g>
    <g id="Grupo_14" data-name="Grupo 14" transform="translate(0 -58.425)" clip-path="url(#clip-path)">
      <g id="Grupo_10" data-name="Grupo 10" transform="translate(123.632 28.481)">
        <path id="Trazado_10" data-name="Trazado 10" d="M.468.238a.817.817,0,0,1-.824.811A.818.818,0,0,1-1.181.238.832.832,0,0,1-.356-.6.832.832,0,0,1,.468.238M.242,9.307h-1.2V3.084h1.2Z" transform="translate(1.181 0.6)" fill="#fff"/>
      </g>
      <g id="Grupo_11" data-name="Grupo 11" transform="translate(127.276 31.978)">
        <path id="Trazado_11" data-name="Trazado 11" d="M.812.457a.921.921,0,0,0-.8-.545A.645.645,0,0,0-.638.524c0,.545.718.783,1.45,1.117s1.436.783,1.436,1.768A2.088,2.088,0,0,1,.106,5.469a2.293,2.293,0,0,1-2.153-1.4l1.024-.465a1.237,1.237,0,0,0,1.13.8.894.894,0,0,0,.945-.877.751.751,0,0,0-.44-.679l-1.17-.626c-.691-.371-1.2-.718-1.2-1.568A1.816,1.816,0,0,1,.08-1.152a1.851,1.851,0,0,1,1.7,1.091Z" transform="translate(2.047 1.152)" fill="#fff"/>
      </g>
      <g id="Grupo_12" data-name="Grupo 12" transform="translate(132.927 31.978)">
        <path id="Trazado_12" data-name="Trazado 12" d="M1.435.555A2.285,2.285,0,0,0-.347-.283,2.152,2.152,0,0,0-2.421,1.9,2.1,2.1,0,0,0-.268,4.1a2.235,2.235,0,0,0,1.7-.824V4.81A3.486,3.486,0,0,1-.28,5.222,3.275,3.275,0,0,1-3.618,1.952,3.308,3.308,0,0,1-.215-1.4a3.374,3.374,0,0,1,1.649.413Z" transform="translate(3.618 1.4)" fill="#fff"/>
      </g>
      <g id="Grupo_13" data-name="Grupo 13" transform="translate(139.935 26.846)">
        <path id="Trazado_13" data-name="Trazado 13" d="M.34,0V6.156H.366A2.123,2.123,0,0,1,2.242,5.132c1.754,0,2.206,1.184,2.206,2.7v3.71h-1.2V7.978C3.251,6.914,3.1,6.2,1.882,6.2.34,6.2.34,7.552.34,8.683v2.859h-1.2V0Z" transform="translate(0.857)" fill="#fff"/>
      </g>
    </g>
    <path id="Trazado_15" data-name="Trazado 15" d="M44.392-11.27H41.785V-24.641h2.607Z" transform="translate(16.568 13.395)" fill="#fff"/>
    <g id="Grupo_15" data-name="Grupo 15" transform="translate(63.742 -11.245)">
      <path id="Trazado_16" data-name="Trazado 16" d="M.74,3.152H4.428V5.421h-6.3V-7.949H.74Z" transform="translate(1.867 7.949)" fill="#fff"/>
    </g>
    <g id="Grupo_16" data-name="Grupo 16" transform="translate(71.756 -11.245)">
      <path id="Trazado_17" data-name="Trazado 17" d="M.74,3.152H4.428V5.421h-6.3V-7.949H.74Z" transform="translate(1.867 7.949)" fill="#fff"/>
    </g>
    <g id="Grupo_18" data-name="Grupo 18" transform="translate(0 -58.425)" clip-path="url(#clip-path)">
      <g id="Grupo_17" data-name="Grupo 17" transform="translate(79.7 47.179)">
        <path id="Trazado_18" data-name="Trazado 18" d="M0,0H2.607V7.484c0,1.649.141,3.972,2.359,3.972S7.325,9.133,7.325,7.484V0H9.93V8c0,3.264-1.383,5.728-4.965,5.728S0,11.261,0,8Z" fill="#fff"/>
      </g>
    </g>
    <g id="Grupo_19" data-name="Grupo 19" transform="translate(91.597 -11.601)">
      <path id="Trazado_20" data-name="Trazado 20" d="M3.051,1.541H3.016L-.017,10.018h-.9L-3.848,1.541h-.035l-1.188,8.3H-7.7L-5.444-3.886H-3.6L-.3,4.927,2.856-3.886H4.737l2,13.726H4.115Z" transform="translate(7.695 3.886)" fill="#fff"/>
    </g>
    <path id="Trazado_21" data-name="Trazado 21" d="M79.992-11.27H77.385V-24.641h2.607Z" transform="translate(30.683 13.395)" fill="#fff"/>
    <g id="Grupo_20" data-name="Grupo 20" transform="translate(113.458 -11.6)">
      <path id="Trazado_22" data-name="Trazado 22" d="M0,0H1.88L8.921,9.345h.035V.355h2.607V13.991H9.683L2.642,4.646H2.607v9.08H0Z" fill="#fff"/>
    </g>
    <g id="Grupo_21" data-name="Grupo 21" transform="translate(126.685 -11.601)">
      <path id="Trazado_23" data-name="Trazado 23" d="M1.093,3.1l-1.1,2.82h-2.75L2.459-7.81H4.479L9.551,5.916H6.768L5.739,3.1ZM3.345-3.89H3.309L1.837.968H5.011Z" transform="translate(2.756 7.81)" fill="#fff"/>
    </g>
    <g id="Grupo_22" data-name="Grupo 22" transform="translate(138.301 -11.246)">
      <path id="Trazado_24" data-name="Trazado 24" d="M1.505,3.8H-1.1V-7.3H-3.8V-9.575h8V-7.3h-2.7Z" transform="translate(3.797 9.575)" fill="#fff"/>
    </g>
    <path id="Trazado_25" data-name="Trazado 25" d="M108.688-11.27h-2.607V-24.641h2.607Z" transform="translate(42.061 13.395)" fill="#fff"/>
    <g id="Grupo_24" data-name="Grupo 24" transform="translate(0 -58.425)" clip-path="url(#clip-path)">
      <g id="Grupo_23" data-name="Grupo 23" transform="translate(152.894 46.824)">
        <path id="Trazado_26" data-name="Trazado 26" d="M1.878,4C-2.2,4-4.736.877-4.736-3.06c0-3.973,2.624-7.023,6.614-7.023S8.493-7.033,8.493-3.06C8.493.877,5.957,4,1.878,4m0-11.51A4.1,4.1,0,0,0-2.041-3.166c0,2.057,1.028,4.593,3.919,4.593S5.8-1.109,5.8-3.166a4.1,4.1,0,0,0-3.92-4.346" transform="translate(4.736 10.083)" fill="#fff"/>
      </g>
    </g>
    <g id="Grupo_25" data-name="Grupo 25" transform="translate(168.283 -11.6)">
      <path id="Trazado_28" data-name="Trazado 28" d="M0,0H1.88l7.04,9.345h.036V.355h2.607V13.991H9.683L2.642,4.646H2.607v9.08H0Z" fill="#fff"/>
    </g>
    <g id="Grupo_26" data-name="Grupo 26" transform="translate(188.637 -11.245)">
      <path id="Trazado_29" data-name="Trazado 29" d="M.74.644V3.588H4.518V5.857H.74v5.888H-1.867V-1.625H4.765V.644Z" transform="translate(1.867 1.625)" fill="#fff"/>
    </g>
    <g id="Grupo_28" data-name="Grupo 28" transform="translate(0 -58.425)" clip-path="url(#clip-path)">
      <g id="Grupo_27" data-name="Grupo 27" transform="translate(197.662 47.179)">
        <path id="Trazado_30" data-name="Trazado 30" d="M0,0H2.607V7.484c0,1.649.141,3.972,2.359,3.972S7.325,9.133,7.325,7.484V0H9.932V8c0,3.264-1.384,5.728-4.966,5.728S0,11.261,0,8Z" fill="#fff"/>
      </g>
    </g>
    <g id="Grupo_29" data-name="Grupo 29" transform="translate(210.322 -11.6)">
      <path id="Trazado_32" data-name="Trazado 32" d="M0,0H1.88L8.921,9.345h.035V.355h2.607V13.991H9.683L2.642,4.646H2.607v9.08H0Z" fill="#fff"/>
    </g>
    <g id="Grupo_31" data-name="Grupo 31" transform="translate(0 -58.425)" clip-path="url(#clip-path)">
      <g id="Grupo_30" data-name="Grupo 30" transform="translate(224.665 47.179)">
        <path id="Trazado_33" data-name="Trazado 33" d="M0,0H3.724c3.865,0,6.455,2.891,6.455,6.7a6.381,6.381,0,0,1-6.473,6.668H0ZM2.607,11.1h.426c3.209,0,4.451-1.772,4.451-4.416,0-2.908-1.49-4.416-4.451-4.416H2.607Z" fill="#fff"/>
      </g>
    </g>
    <g id="Grupo_32" data-name="Grupo 32" transform="translate(0 -58.425)">
      <path id="Trazado_35" data-name="Trazado 35" d="M13.894,0,10.506,38.655l-.934-.5L7.66,30.423l-.5.1L4.412,21.076,3.7,21.26,8.629,38.2l-.02.387L7.9,37.208l-.666.3.282.55L-2.935,22.95l-.621.384L1.823,31.11l-3.886-5.061-.6.415,5.073,6.6-5.375-6.216-.265.208-1.349-1.51L-5.143,26,7.77,40.455l-34.7-25.58-.149-.11-.117.142-.222.268-.117.142.149.11L4.97,39.278l-.081-.045-.385.6,3.42,1.979L-18.667,34.9l-.2.677L7,42.294l-42-1.986-.038.7L-.124,42.659l-30.678.6.017.7,37.948-.742L-2.7,45.608l.046.173.013.04-9.806,2.549-.184.049.05.175.1.327.052.175.182-.047L6.534,44.16l-2.1.961.323.633.58-.267-15.981,9.877.4.587,8.223-5.079-5.346,3.67.433.567L.049,50.314l-6.576,5.079.221.251-1.6,1.274.479.536,15.3-12.214L-19.3,78.19l.582.432,25.3-30.65.631.362.965-1.489-.138,2.614L1.989,70.24l.714.186L7.863,52.69l-.148,2.832.739.035.316-5.985,1.26-4.318.754.564,2.49,9.151.047.175.225-.054,2.748,9.443.715-.187L10.9,43.118,18.715,15.37,18,15.183,10.893,39.635,14.634.036Z" transform="translate(35.042)" fill="#fff"/>
    </g>
    <g id="Grupo_33" data-name="Grupo 33" transform="translate(45.083 -54.362)">
      <path id="Trazado_36" data-name="Trazado 36" d="M0,0V34.781l.753-.015V0Z" fill="#fff"/>
    </g>
    <g id="Grupo_34" data-name="Grupo 34" transform="translate(45.083 -15.669)">
      <path id="Trazado_37" data-name="Trazado 37" d="M0,0V38.834l.753-.015V0Z" fill="#fff"/>
    </g>
    <g id="Grupo_35" data-name="Grupo 35" transform="translate(44.182 -42.697)">
      <path id="Trazado_38" data-name="Trazado 38" d="M.471,0l-1.66,25.344.753.032L1.223.049Z" transform="translate(1.189)" fill="#fff"/>
    </g>
  </g>
</svg>
