<?xml version="1.0" encoding="UTF-8"?>
<svg width="705px" height="59px" viewBox="0 0 705 59" version="1.1" xmlns="http://www.w3.org/2000/svg" xmlns:xlink="http://www.w3.org/1999/xlink">
    <!-- Generator: Sketch 63.1 (92452) - https://sketch.com -->
    <title>Artboard</title>
    <desc>Created with Sketch.</desc>
    <defs>
        <polygon id="path-1" points="0.7902 0.5063 55.5342 0.5063 55.5342 58 0.7902 58"></polygon>
    </defs>
    <g id="Artboard" stroke="none" stroke-width="1" fill="none" fill-rule="evenodd">
        <g id="Group-24">
            <path d="M26.116,52.5643 L6.44,52.5643 L6.44,2.0213 C6.44,1.7823 6.247,1.5893 6.008,1.5893 L0.431,1.5893 C0.193,1.5893 0,1.7823 0,2.0213 L0,57.3953 C0,57.6333 0.193,57.8263 0.431,57.8263 L26.116,57.8263 C26.354,57.8263 26.548,57.6333 26.548,57.3953 L26.548,52.9963 C26.548,52.7573 26.354,52.5643 26.116,52.5643" id="Fill-1" fill="#383A36"></path>
            <path d="M138.5101,1.5892 L101.5151,1.5892 C101.2771,1.5892 101.0841,1.7822 101.0841,2.0212 L101.0841,6.4972 C101.0841,6.7362 101.2771,6.9292 101.5151,6.9292 L116.7931,6.9292 L116.7931,57.3952 C116.7931,57.6332 116.9861,57.8262 117.2241,57.8262 L122.7221,57.8262 C122.9611,57.8262 123.1541,57.6332 123.1541,57.3952 L123.1541,6.9292 L138.5101,6.9292 C138.7481,6.9292 138.9421,6.7362 138.9421,6.4972 L138.9421,2.0212 C138.9421,1.7822 138.7481,1.5892 138.5101,1.5892" id="Fill-3" fill="#383A36"></path>
            <path d="M194.5125,1.5892 L157.5185,1.5892 C157.2805,1.5892 157.0865,1.7822 157.0865,2.0212 L157.0865,6.4972 C157.0865,6.7362 157.2805,6.9292 157.5185,6.9292 L172.7955,6.9292 L172.7955,57.3952 C172.7955,57.6332 172.9885,57.8262 173.2275,57.8262 L178.7255,57.8262 C178.9645,57.8262 179.1575,57.6332 179.1575,57.3952 L179.1575,6.9292 L194.5125,6.9292 C194.7515,6.9292 194.9445,6.7362 194.9445,6.4972 L194.9445,2.0212 C194.9445,1.7822 194.7515,1.5892 194.5125,1.5892" id="Fill-5" fill="#383A36"></path>
            <path d="M257.3465,1.5892 L251.8485,1.5892 C251.6105,1.5892 251.4165,1.7822 251.4165,2.0212 L251.4165,35.5592 C251.4165,41.3372 250.1735,45.6262 247.7215,48.3062 C245.2785,50.9752 241.8305,52.3282 237.4755,52.3282 C233.1165,52.3282 229.6415,50.9742 227.1475,48.3022 C224.6445,45.6242 223.3755,41.3362 223.3755,35.5592 L223.3755,2.0212 C223.3755,1.7822 223.1825,1.5892 222.9445,1.5892 L217.4465,1.5892 C217.2075,1.5892 217.0145,1.7822 217.0145,2.0212 L217.0145,35.5592 C217.0145,43.1292 218.8785,48.8852 222.5565,52.6692 C226.2355,56.4562 231.2285,58.3762 237.3965,58.3762 C243.5635,58.3762 248.5565,56.4562 252.2365,52.6692 C255.9135,48.8852 257.7785,43.1292 257.7785,35.5592 L257.7785,2.0212 C257.7785,1.7822 257.5855,1.5892 257.3465,1.5892" id="Fill-7" fill="#383A36"></path>
            <path d="M529.1883,29.7078 L518.6233,29.7078 L518.6233,7.2438 L529.1883,7.2438 C537.8813,7.2438 542.1083,10.9568 542.1083,18.5928 C542.1083,26.0718 537.8813,29.7078 529.1883,29.7078 L529.1883,29.7078 Z M538.8893,33.2248 C541.1543,32.3638 543.0523,31.1368 544.5423,29.5728 C547.2003,26.7818 548.5473,22.9818 548.5473,18.2788 C548.5473,13.2058 546.9583,9.1108 543.8213,6.1068 C540.6883,3.1088 535.8973,1.5888 529.5813,1.5888 L512.6153,1.5888 C512.3763,1.5888 512.1833,1.7818 512.1833,2.0208 L512.1833,57.3948 C512.1833,57.6328 512.3763,57.8268 512.6153,57.8268 L518.1913,57.8268 C518.4293,57.8268 518.6233,57.6328 518.6233,57.3948 L518.6233,34.7338 L527.1573,34.7338 L533.0023,34.5748 L533.0163,34.5728 L545.8743,57.6038 C545.9503,57.7408 546.0933,57.8258 546.2503,57.8258 L552.1813,57.8258 C552.3343,57.8258 552.4773,57.7438 552.5553,57.6108 C552.6313,57.4778 552.6323,57.3138 552.5563,57.1808 L538.8893,33.2248 Z" id="Fill-9" fill="#383A36"></path>
            <g id="Group-13" transform="translate(565.000000, 0.493800)">
                <mask id="mask-2" fill="white">
                    <use xlink:href="#path-1"></use>
                </mask>
                <g id="Clip-12"></g>
                <path d="M46.2772,41.2653 C44.4652,44.6843 41.9572,47.3483 38.8222,49.1833 C35.6842,51.0213 32.0972,51.9523 28.1622,51.9523 C24.2262,51.9523 20.6392,51.0213 17.5022,49.1833 C14.3652,47.3483 11.8562,44.6833 10.0472,41.2653 C8.2292,37.8373 7.3082,33.7833 7.3082,29.2143 C7.3082,24.6463 8.2292,20.5923 10.0472,17.1633 C11.8562,13.7443 14.3652,11.0803 17.5022,9.2433 C20.6392,7.4063 24.2262,6.4743 28.1622,6.4743 C32.0972,6.4743 35.6842,7.4063 38.8222,9.2433 C41.9572,11.0783 44.4652,13.7433 46.2772,17.1633 C48.0942,20.5953 49.0152,24.6493 49.0152,29.2143 C49.0152,33.7803 48.0942,37.8343 46.2772,41.2653 M42.2042,4.1793 C38.0712,1.7423 33.3472,0.5063 28.1622,0.5063 C22.9762,0.5063 18.2532,1.7423 14.1202,4.1793 C9.9842,6.6183 6.6932,10.0563 4.3372,14.3993 C1.9832,18.7373 0.7902,23.7213 0.7902,29.2143 C0.7902,34.7063 1.9832,39.7043 4.3372,44.0673 C6.6932,48.4373 9.9842,51.8903 14.1202,54.3273 C18.2492,56.7643 22.9732,58.0003 28.1622,58.0003 C33.3502,58.0003 38.0752,56.7643 42.2042,54.3273 C46.3372,51.8913 49.6292,48.4393 51.9872,44.0673 C54.3402,39.7043 55.5342,34.7063 55.5342,29.2143 C55.5342,23.7213 54.3402,18.7373 51.9872,14.3993 C49.6292,10.0553 46.3372,6.6163 42.2042,4.1793" id="Fill-11" fill="#383A36" mask="url(#mask-2)"></path>
            </g>
            <path d="M703.9949,1.7566 C703.9139,1.6516 703.7869,1.5896 703.6539,1.5896 L697.6049,1.5896 C697.4059,1.5896 697.2319,1.7256 697.1849,1.9206 L685.9409,48.9446 L672.4159,1.9016 C672.3629,1.7166 672.1929,1.5896 672.0009,1.5896 L665.7949,1.5896 C665.6029,1.5896 665.4329,1.7166 665.3809,1.9016 L651.8529,48.8626 L640.6869,1.9206 C640.6409,1.7266 640.4669,1.5896 640.2669,1.5896 L634.1419,1.5896 C634.0089,1.5896 633.8829,1.6516 633.8009,1.7566 C633.7189,1.8616 633.6909,1.9996 633.7239,2.1286 L648.0189,57.5026 C648.0689,57.6936 648.2409,57.8266 648.4369,57.8266 L655.0339,57.8266 C655.2249,57.8266 655.3939,57.6996 655.4479,57.5156 L668.9359,11.4926 L682.3469,57.5146 C682.3999,57.6996 682.5689,57.8266 682.7619,57.8266 L689.3589,57.8266 C689.5559,57.8266 689.7269,57.6936 689.7769,57.5026 L704.0719,2.1286 C704.1049,1.9996 704.0769,1.8616 703.9949,1.7566" id="Fill-14" fill="#383A36"></path>
            <path d="M327.744,44.6634 L323.108,42.4824 C322.829,42.3504 322.501,42.4614 322.348,42.7294 C320.932,45.2124 319.022,47.2984 316.638,48.9494 C313.323,51.2434 309.151,52.4074 304.238,52.4074 C300.513,52.4074 297.086,51.4764 294.055,49.6414 C291.021,47.8074 288.605,45.1564 286.872,41.7644 C285.131,38.3604 284.248,34.3174 284.248,29.7464 C284.248,25.1764 285.131,21.1204 286.872,17.6894 C288.606,14.2704 291.023,11.6074 294.055,9.7724 C297.087,7.9374 300.514,7.0074 304.238,7.0074 C309.15,7.0074 313.322,8.1714 316.638,10.4664 C319.021,12.1164 320.931,14.2024 322.348,16.6854 C322.501,16.9544 322.829,17.0634 323.108,16.9324 L327.744,14.7514 C328.054,14.6054 328.181,14.2234 328.014,13.9234 C326.24,10.7484 323.926,8.0724 321.067,5.9544 C316.665,2.6924 311.028,1.0384 304.316,1.0384 C299.182,1.0384 294.536,2.2624 290.507,4.6744 C286.475,7.0884 283.302,10.5164 281.076,14.8624 C278.855,19.1974 277.729,24.2054 277.729,29.7464 C277.729,35.2384 278.855,40.2064 281.077,44.5144 C283.303,48.8344 286.474,52.2624 290.505,54.7004 C294.532,57.1394 299.179,58.3754 304.316,58.3754 C311.029,58.3754 316.665,56.7224 321.067,53.4604 C323.926,51.3424 326.241,48.6664 328.014,45.4914 C328.181,45.1924 328.054,44.8094 327.744,44.6634" id="Fill-16" fill="#383A36"></path>
            <path d="M78.5823,1.5892 L49.0493,1.5892 C48.8113,1.5892 48.6173,1.7822 48.6173,2.0212 L48.6173,57.3952 C48.6173,57.6332 48.8113,57.8262 49.0493,57.8262 L78.5823,57.8262 C78.8203,57.8262 79.0143,57.6332 79.0143,57.3952 L79.0143,52.8392 C79.0143,52.6002 78.8203,52.4072 78.5823,52.4072 L55.0573,52.4072 L55.0553,48.3562 C56.2963,37.2182 65.2843,28.3362 76.4273,27.2362 C76.6483,27.2152 76.8163,27.0292 76.8163,26.8072 L76.8163,22.3962 C76.8163,22.2762 76.7663,22.1602 76.6773,22.0782 C76.5893,21.9972 76.4803,21.9562 76.3493,21.9662 C67.8763,22.6732 60.0183,27.1782 55.0573,34.1042 L55.0573,6.9292 L78.5823,6.9292 C78.8203,6.9292 79.0143,6.7362 79.0143,6.4972 L79.0143,2.0212 C79.0143,1.7822 78.8203,1.5892 78.5823,1.5892" id="Fill-18" fill="#383A36"></path>
            <path d="M380.3484,1.5887 L350.8154,1.5887 C350.5774,1.5887 350.3834,1.7817 350.3834,2.0207 L350.3834,57.3947 C350.3834,57.6327 350.5774,57.8257 350.8154,57.8257 L380.3484,57.8257 C380.5864,57.8257 380.7804,57.6327 380.7804,57.3947 L380.7804,52.8387 C380.7804,52.5997 380.5864,52.4067 380.3484,52.4067 L356.8234,52.4067 L356.8214,48.3567 C358.0624,37.2177 367.0504,28.3357 378.1934,27.2357 C378.4134,27.2147 378.5824,27.0287 378.5824,26.8067 L378.5824,22.3967 C378.5824,22.2757 378.5324,22.1597 378.4444,22.0787 C378.3554,21.9967 378.2464,21.9567 378.1154,21.9657 C369.6424,22.6727 361.7844,27.1777 356.8244,34.1037 L356.8244,6.9287 L380.3484,6.9287 C380.5864,6.9287 380.7804,6.7357 380.7804,6.4977 L380.7804,2.0207 C380.7804,1.7817 380.5864,1.5887 380.3484,1.5887" id="Fill-20" fill="#383A36"></path>
            <path d="M491.8006,27.744 L467.2946,27.744 C467.0556,27.744 466.8626,27.937 466.8626,28.176 L466.8626,32.339 C466.8626,32.577 467.0556,32.77 467.2946,32.77 L486.5396,32.77 C486.1866,36.733 485.0976,40.236 483.3016,43.189 C481.4396,46.249 478.9706,48.615 475.9666,50.22 C472.9526,51.827 469.5856,52.642 465.9586,52.642 C461.8646,52.642 458.1716,51.711 454.9826,49.873 C451.7936,48.037 449.2596,45.373 447.4506,41.954 C445.6336,38.528 444.7116,34.421 444.7116,29.747 C444.7116,25.178 445.6206,21.122 447.4126,17.694 C449.1976,14.275 451.6936,11.611 454.8276,9.776 C457.9666,7.939 461.5276,7.008 465.4086,7.008 C469.9046,7.008 473.8536,8.145 477.1446,10.389 C479.6216,12.08 481.5656,14.191 482.9636,16.672 C483.1116,16.932 483.4276,17.04 483.6976,16.912 L488.3636,14.717 C488.6606,14.577 488.7846,14.213 488.6286,13.925 C486.9046,10.74 484.5636,8.05 481.6066,5.912 C477.2056,2.731 471.7556,1.118 465.4086,1.118 C460.1196,1.118 455.3556,2.34 451.2496,4.751 C447.1386,7.164 443.8986,10.592 441.6206,14.937 C439.3466,19.273 438.1936,24.256 438.1936,29.747 C438.1936,35.239 439.3466,40.222 441.6206,44.556 C443.8986,48.904 447.1526,52.331 451.2886,54.743 C455.4196,57.154 460.1966,58.376 465.4876,58.376 C470.4626,58.376 474.9606,57.261 478.8566,55.06 C482.7516,52.863 485.8966,49.811 488.2016,45.993 C490.5046,42.183 491.8596,37.839 492.2326,33.046 L492.2326,28.176 C492.2326,27.937 492.0386,27.744 491.8006,27.744" id="Fill-22" fill="#383A36"></path>
        </g>
    </g>
</svg>