<?xml version="1.0" encoding="utf-8"?>
<!-- Generator: Adobe Illustrator 25.4.1, SVG Export Plug-In . SVG Version: 6.00 Build 0)  -->
<svg version="1.1" id="Layer_1" xmlns="http://www.w3.org/2000/svg" xmlns:xlink="http://www.w3.org/1999/xlink" x="0px" y="0px"
	 viewBox="0 0 1280 1280" style="enable-background:new 0 0 1280 1280;" xml:space="preserve">
<g>
	<path d="M714.96,647.52c15.78,0,29.54-0.24,43.29,0.06c16.03,0.35,23.48,8.76,22,24.43c-0.51,5.38-1.51,10.71-2.24,16.06
		c-1.65,12.12-8.67,18.33-20.89,18.47c-13.27,0.15-26.54,0.03-40.98,0.03c0,46.34,0,91.68,0,138.26c32.69,0,65.19,0.92,97.59-0.37
		c17.44-0.69,29.86-15.39,32.4-33.31c2.33-16.39,9.13-23.63,21.19-22.54c12.58,1.13,18.67,11.01,17.02,27.6
		c-3.55,35.62-35.36,66.67-71.47,66.86c-115.13,0.59-230.28,0.61-345.41,0c-38.56-0.2-71.66-33.93-71.81-72.48
		c-0.45-113.58-0.44-227.17-0.02-340.75c0.14-39.31,33.45-72.81,72.88-72.98c114.15-0.5,228.3-0.47,342.45-0.05
		c40.15,0.15,73.3,33.71,73.51,73.9c0.41,79.16,0.17,158.33,0.1,237.49c-0.01,14.46-7.39,23.09-19.05,23.06
		c-11.61-0.03-19.15-8.76-19.16-23.11c-0.1-76.21-0.01-152.43-0.06-228.64c-0.02-30.52-14.49-44.75-45.5-44.76
		c-107.23-0.04-214.46-0.04-321.69-0.01c-30.94,0.01-45.34,14.28-45.35,44.91c-0.03,107.19-0.04,214.38,0.01,321.57
		c0.01,29.57,14.72,43.99,44.76,44.02c58.27,0.06,116.53,0.02,175.79,0.02c0-46.4,0-91.8,0-138.68c-13.45,0-26.18,0.22-38.91-0.06
		c-15.04-0.33-21.5-6.77-22.11-21.53c-0.18-4.42-0.11-8.85-0.03-13.27c0.33-17.69,6.49-23.92,24-24.19
		c11.35-0.18,22.71-0.24,34.06-0.45c0.84-0.02,1.67-0.81,3.99-2.02c0-17.82-0.06-36.39,0.01-54.96
		c0.25-62.66,51.07-104.2,112.81-92.26c15.71,3.04,20.42,12.68,18.36,37.55c-1.13,13.72-9.13,21.22-22.42,19.98
		c-39.4-3.66-52.17,6.99-49.23,51.89C715.67,619.93,714.96,632.71,714.96,647.52z"/>
</g>
</svg>
