<?xml version="1.0" encoding="utf-8"?>
<!-- Generator: Adobe Illustrator 25.4.1, SVG Export Plug-In . SVG Version: 6.00 Build 0)  -->
<svg version="1.1" id="Layer_1" xmlns="http://www.w3.org/2000/svg" xmlns:xlink="http://www.w3.org/1999/xlink" x="0px" y="0px"
	 viewBox="0 0 1280 1280" style="enable-background:new 0 0 1280 1280;" xml:space="preserve">
<g>
	<path d="M641.44,880.99c-33.57,0-67.18,1-100.71-0.2c-77.02-2.76-129.6-45.29-138.77-121c-9.92-81.93-10.8-165.03,1.29-246.98
		c9.79-66.35,63.15-111.2,130.6-112.82c70.56-1.69,141.22-1.92,211.77-0.12c75.92,1.93,130.5,51.75,136.49,126.94
		c4.56,57.19,2.87,114.89,3.52,172.36c0.13,12.01-6.87,19.31-19.32,19.76c-11.4,0.41-18.85-7.98-18.93-21.49
		c-0.23-42.76,0.29-85.53-0.47-128.29c-0.3-17.11-1.86-34.43-5.15-51.21c-9.15-46.63-44.19-78.47-91.65-79.53
		c-72.53-1.63-145.16-1.6-217.69,0.02c-46.6,1.04-84.29,32.57-90.69,78.49c-11.3,81.03-11.1,162.86-0.38,243.89
		c6.61,49.95,45.24,80.67,95.83,81.44c69.1,1.06,138.24,1.08,207.34,0.02c39.95-0.61,70.98-18.25,89.47-55.01
		c6.4-12.72,17.45-17.09,27.63-11.85c10.4,5.35,13.14,16.22,6.47,29.39c-23.91,47.2-63.61,71.99-115.6,75.27
		c-36.88,2.33-74.03,0.45-111.05,0.45C641.44,880.69,641.44,880.84,641.44,880.99z"/>
	<path d="M521.11,639.42c0.28-65.46,54.35-118.74,120.15-118.37c65.57,0.37,119.45,54.72,118.84,119.88
		c-0.61,65.55-54.71,118.76-120.36,118.38C574.03,758.93,520.83,705.16,521.11,639.42z M559.61,639.54
		c-0.21,44.61,35.69,81.06,80.23,81.47c44.43,0.41,81.22-35.74,81.62-80.2c0.41-44.37-35.75-81.03-80.34-81.46
		C596.72,558.93,559.83,595.22,559.61,639.54z"/>
	<path d="M772.66,540.64c-15.56-0.45-29.16-15.01-28.27-30.25c0.87-14.92,14.83-27.84,29.62-27.41
		c15.54,0.45,29.21,15.05,28.3,30.23C801.41,528.1,787.39,541.07,772.66,540.64z"/>
</g>
</svg>
