<?xml version="1.0" encoding="utf-8"?>
<!-- Generator: Adobe Illustrator 25.4.1, SVG Export Plug-In . SVG Version: 6.00 Build 0)  -->
<svg version="1.1" id="Layer_1" xmlns="http://www.w3.org/2000/svg" xmlns:xlink="http://www.w3.org/1999/xlink" x="0px" y="0px"
	 viewBox="0 0 1280 1280" style="enable-background:new 0 0 1280 1280;" xml:space="preserve">
<g>
	<path d="M884.67,718.19c-6.61,8.83-14.47,15.44-26.28,10.64c-10.88-4.42-12.23-13.93-12.2-24.47c0.21-74.7,0.14-149.41,0.1-224.11
		c-0.01-31.52-14.21-45.5-46.2-45.51c-106.69-0.03-213.37-0.03-320.06,0c-32.08,0.01-46.27,13.93-46.28,45.43
		c-0.03,106.65-0.03,213.3,0,319.94c0.01,30.78,14.31,45.1,45.11,45.12c107.67,0.04,215.35,0.05,323.02-0.01
		c27.92-0.01,39.54-10.88,44.93-38.35c1.27-6.47,7.39-14.22,13.36-17.07c10.61-5.06,18.46,2.43,24.49,10.99c0,7.87,0,15.74,0,23.61
		c-2.02,4.31-4,8.64-6.08,12.92c-13.87,28.54-36.28,45.64-68.5,45.79c-113.6,0.53-227.2,0.47-340.79,0.06
		c-40.16-0.15-73.57-33.64-73.7-73.66c-0.36-113.03-0.36-226.07,0-339.1c0.13-40.04,33.52-73.48,73.71-73.63
		c113.6-0.41,227.2-0.47,340.79,0.06c32.22,0.15,54.65,17.22,68.49,45.8c2.08,4.28,4.05,8.61,6.07,12.92
		C884.67,543.12,884.67,630.66,884.67,718.19z"/>
	<path d="M659.66,605.91c24.8-27.04,66.56-34.72,101.48-17.57c20.53,10.08,32.27,27.91,33.56,49.02c2.94,48,2.77,96.18,3.84,144.29
		c0.02,0.97-0.16,1.97-0.43,2.91c-3.77,13.15-17.88,17.38-46.85,14.09c-12.36-1.41-18.41-8.43-18.43-20.66
		c-0.05-27.04,0.11-54.09-0.11-81.13c-0.07-8.82-0.55-17.7-1.7-26.45c-2.8-21.31-12.05-31.26-29.58-32.71
		c-22.51-1.87-37.63,7.03-42.31,27.92c-3.07,13.7-2.98,28.21-3.29,42.39c-0.49,22.11,0.02,44.25-0.18,66.37
		c-0.16,17.49-6.7,23.91-24.1,24.39c-39.29,1.08-41.19-0.74-41.19-39.49c0-48.18-0.01-96.37,0-144.55c0-26.96,4.34-31.29,32.08-31.1
		c6.85,0.04,15.21-1.15,20.18,2.19C649.58,590.48,653.97,598.86,659.66,605.91z"/>
	<path d="M481.29,690.97c0-27.49-0.1-54.98,0.04-82.47c0.09-17.78,6.34-24.23,23.53-24.94c40.53-1.67,43.87,1.52,43.87,41.83
		c0,48.11,0.03,96.21-0.01,144.32c-0.02,23.99-5.2,29.01-29.76,29.07c-3.95,0.01-7.89,0.04-11.84-0.01
		c-19.85-0.26-25.72-5.91-25.8-25.33C481.21,745.95,481.29,718.46,481.29,690.97z"/>
	<path d="M555.19,515.05c0.22,21.31-17.96,39.57-39.38,39.56c-21.36-0.02-39.77-18.45-39.52-39.56
		c0.24-20.73,17.8-38.22,38.78-38.62C536.66,476,554.97,493.62,555.19,515.05z"/>
</g>
</svg>
